<svg width="223" height="225" viewBox="0 0 223 225" fill="none" xmlns="http://www.w3.org/2000/svg">
<path d="M111.5 224C172.536 224 222 174.071 222 112.5C222 50.9288 172.536 1 111.5 1C50.464 1 1 50.9288 1 112.5C1 174.071 50.464 224 111.5 224Z" fill="#0B0B0B" stroke="black" stroke-width="2"/>
<path d="M166.5 138.5V47.5L193 62.5V156L113 201L79 180.5V151L113 171L166.5 138.5Z" fill="#F5F5F5"/>
<path d="M112.5 70L78 89.5V129L112.5 146.5C124 140.5 147 128.6 147 129V89.5L112.5 70Z" fill="#737373" stroke="#F5F5F5"/>
<path d="M113 171L79 151V180.5L113 201V171Z" fill="url(#paint0_linear_18_446)"/>
<path d="M113 171V201L193 156L166.5 138.5L113 171Z" fill="url(#paint1_linear_18_446)"/>
<path d="M193 156L166.5 138.5V48L193 62.697V156Z" fill="url(#paint2_linear_18_446)"/>
<path d="M113 47L147 67V37.5L113 17V47Z" fill="url(#paint3_linear_18_446)"/>
<path d="M113 47V17L33 62L59.5 79.5L113 47Z" fill="url(#paint4_linear_18_446)"/>
<path d="M33 61.9999L59.5 79.5V170L33 155.303V61.9999Z" fill="url(#paint5_linear_18_446)"/>
<path d="M59.5 169V80L113 47.5L147.5 67L147 37.5" stroke="black"/>
<path d="M167 48V138L113.5 171L79.5 151.5L79 180.5" stroke="black"/>
<path d="M77 129.928L112.759 109.791V148L77 129.928Z" fill="url(#paint6_linear_18_446)"/>
<path d="M111.723 148V109.791L148 129.928L111.723 148Z" fill="url(#paint7_linear_18_446)"/>
<path d="M147.482 129.928L111.723 109.791L147.482 89.1372V129.928Z" fill="url(#paint8_linear_18_446)"/>
<path d="M147.482 89.1373L111.723 109.791V69L147.482 89.1373Z" fill="url(#paint9_linear_18_446)"/>
<path d="M112.759 69V109.791L77 89.1373L112.759 69Z" fill="url(#paint10_linear_18_446)"/>
<path d="M77 89.1372L112.759 109.791L77 129.928V89.1372Z" fill="url(#paint11_linear_18_446)"/>
<defs>
<linearGradient id="paint0_linear_18_446" x1="97" y1="160" x2="92.5" y2="196.5" gradientUnits="userSpaceOnUse">
<stop stop-color="#D9D9D9"/>
<stop offset="1" stop-color="#2B2B2B"/>
</linearGradient>
<linearGradient id="paint1_linear_18_446" x1="139.5" y1="153.5" x2="156.5" y2="183.5" gradientUnits="userSpaceOnUse">
<stop stop-color="#D9D9D9"/>
<stop offset="1" stop-color="#363636"/>
</linearGradient>
<linearGradient id="paint2_linear_18_446" x1="166" y1="102" x2="199.5" y2="102" gradientUnits="userSpaceOnUse">
<stop stop-color="#D9D9D9"/>
<stop offset="1" stop-color="#363636"/>
</linearGradient>
<linearGradient id="paint3_linear_18_446" x1="127" y1="56.5" x2="135.5" y2="19.5" gradientUnits="userSpaceOnUse">
<stop stop-color="#D9D9D9"/>
<stop offset="1" stop-color="#363636"/>
</linearGradient>
<linearGradient id="paint4_linear_18_446" x1="86.5" y1="64.5" x2="69" y2="33" gradientUnits="userSpaceOnUse">
<stop stop-color="#D9D9D9"/>
<stop offset="1" stop-color="#363636"/>
</linearGradient>
<linearGradient id="paint5_linear_18_446" x1="60" y1="116" x2="26" y2="116" gradientUnits="userSpaceOnUse">
<stop stop-color="#D9D9D9"/>
<stop offset="1" stop-color="#363636"/>
</linearGradient>
<linearGradient id="paint6_linear_18_446" x1="112.759" y1="109.791" x2="93.6889" y2="142.382" gradientUnits="userSpaceOnUse">
<stop stop-color="#D9D9D9"/>
<stop offset="1" stop-color="#737373"/>
</linearGradient>
<linearGradient id="paint7_linear_18_446" x1="111.723" y1="109.791" x2="129.991" y2="143.347" gradientUnits="userSpaceOnUse">
<stop stop-color="#D9D9D9"/>
<stop offset="1" stop-color="#737373"/>
</linearGradient>
<linearGradient id="paint8_linear_18_446" x1="111.723" y1="109.791" x2="151.628" y2="110.311" gradientUnits="userSpaceOnUse">
<stop stop-color="#D9D9D9"/>
<stop offset="1" stop-color="#737373"/>
</linearGradient>
<linearGradient id="paint9_linear_18_446" x1="132.971" y1="76.7451" x2="111.834" y2="109.862" gradientUnits="userSpaceOnUse">
<stop stop-color="#737373"/>
<stop offset="1" stop-color="#D9D9D9"/>
</linearGradient>
<linearGradient id="paint10_linear_18_446" x1="93.0657" y1="75.7124" x2="112.65" y2="109.853" gradientUnits="userSpaceOnUse">
<stop stop-color="#737373"/>
<stop offset="1" stop-color="#D9D9D9"/>
</linearGradient>
<linearGradient id="paint11_linear_18_446" x1="112.759" y1="109.791" x2="72.854" y2="109.791" gradientUnits="userSpaceOnUse">
<stop stop-color="#D9D9D9"/>
<stop offset="1" stop-color="#737373"/>
</linearGradient>
</defs>
</svg>
